SplineFontDB: 3.0
FontName: zbalermorna-manri
FullName: Zbalermorna zei Manri
FamilyName: zbalermorna
Weight: Regular
Copyright: Copyright (c) 2016, la kmir
UComments: "2016-12-9: Created with FontForge (http://fontforge.org)"
Version: 001.000
ItalicAngle: 0
UnderlinePosition: -90
UnderlineWidth: 464
Ascent: 800
Descent: 200
InvalidEm: 0
LayerCount: 2
Layer: 0 0 "Back" 1
Layer: 1 0 "Fore" 0
XUID: [1021 15 -1537435809 229010]
FSType: 0
OS2Version: 0
OS2_WeightWidthSlopeOnly: 0
OS2_UseTypoMetrics: 1
CreationTime: 1481267425
ModificationTime: 1565298297
PfmFamily: 17
TTFWeight: 400
TTFWidth: 5
LineGap: 82
VLineGap: 0
OS2TypoAscent: 0
OS2TypoAOffset: 1
OS2TypoDescent: 0
OS2TypoDOffset: 1
OS2TypoLinegap: 82
OS2WinAscent: 0
OS2WinAOffset: 1
OS2WinDescent: 0
OS2WinDOffset: 1
HheadAscent: 0
HheadAOffset: 1
HheadDescent: 0
HheadDOffset: 1
OS2Vendor: 'PfEd'
Lookup: 4 0 1 "zlmFF" { "zlmFF subtable"  } ['rlig' ('latn' <'dflt' > 'DFLT' <'dflt' > ) ]
Lookup: 4 0 1 "zlmSFF" { "zlmSFF subtable"  } ['rlig' ('latn' <'dflt' > 'DFLT' <'dflt' > ) ]
Lookup: 4 0 1 "zlmSF" { "zlmSF subtable"  } ['rlig' ('latn' <'dflt' > 'DFLT' <'dflt' > ) ]
Lookup: 4 0 1 "zlmNVVHVV" { "zlmNVVHVV subtable"  } ['rlig' ('latn' <'dflt' > 'DFLT' <'dflt' > ) ]
Lookup: 6 0 0 "zlmVVHVV" { "zlmVVHVV contextual 0"  "zlmVVHVV contextual 1"  "zlmVVHVV contextual 2"  "zlmVVHVV contextual 3"  "zlmVVHVV contextual 4"  "zlmVVHVV contextual 5"  "zlmVVHVV contextual 6"  "zlmVVHVV contextual 7"  "zlmVVHVV contextual 8"  "zlmVVHVV contextual 9"  "zlmVVHVV contextual 10"  "zlmVVHVV contextual 11"  "zlmVVHVV contextual 12"  "zlmVVHVV contextual 13"  "zlmVVHVV contextual 14"  "zlmVVHVV contextual 15"  "zlmVVHVV contextual 16"  } ['rlig' ('latn' <'dflt' > 'DFLT' <'dflt' > ) ]
Lookup: 4 0 0 "Ligature Substitution lookup 5" { "Ligature Substitution lookup 5 subtable"  } []
Lookup: 4 0 0 "Ligature Substitution lookup 6" { "Ligature Substitution lookup 6 subtable"  } []

StartChar: ZLM_NULL
Encoding: 0 926464 0
Width: 300
VWidth: 0
GlyphClass: 2
Flags: W
HStem: 157 156<96.2149 203.785>
VStem: 72 156<181.215 288.785>
AnchorPoint: "Bottom" 150 0 basechar 0
LayerCount: 2
Fore
SplineSet
72 235 m 4
 72 278 107 313 150 313 c 4
 193 313 228 278 228 235 c 4
 228 192 193 157 150 157 c 4
 107 157 72 192 72 235 c 4
EndSplineSet
EndChar

StartChar: ZLM_H
Encoding: 16 926480 12
Width: 300
VWidth: 0
GlyphClass: 2
Flags: W
HStem: 0 21G<100 200>
VStem: 100 100<0 470>
AnchorPoint: "Bottom" 150 0 basechar 0
LayerCount: 2
Fore
SplineSet
100 470 m 5
 200 470 l 5
 200 0 l 5
 100 0 l 5
 100 470 l 5
EndSplineSet
EndChar

StartChar: ZLM_TONE_UP
Encoding: 31 926495 23
Width: 0
VWidth: 0
GlyphClass: 2
Flags: W
HStem: -224 168
VStem: -124 253
AnchorPoint: "Bottom" 0 0 mark 0
LayerCount: 2
Fore
SplineSet
-124 -204 m 1
 39 -56 l 1
 129 -97 l 1
 -90 -224 l 1
 -124 -204 l 1
EndSplineSet
EndChar

StartChar: ZLM_P
Encoding: 32 926496 24
Width: 600
VWidth: 0
Flags: W
HStem: 0 21G<50.9724 167.021>
VStem: 51 99<119 725>
AnchorPoint: "Bottom" 250 0 basechar 0
LayerCount: 2
Fore
SplineSet
550 470 m 5
 150 0 l 5
 51 0 l 21
 50 725 l 21
 150 725 l 5
 150 119 l 5
 450 470 l 5
 550 470 l 5
EndSplineSet
EndChar

StartChar: ZLM_TONE_DOWN
Encoding: 47 926511 35
Width: 0
VWidth: 0
GlyphClass: 2
Flags: W
HStem: -238.574 194.574
VStem: -121 219
AnchorPoint: "Bottom" 0 0 mark 0
LayerCount: 2
Fore
SplineSet
-63 -44 m 1
 98 -193 l 1
 65.81640625 -238.57421875 l 1
 -121 -90 l 1
 -63 -44 l 1
EndSplineSet
EndChar

StartChar: ZLM_T
Encoding: 48 926512 36
Width: 600
VWidth: 0
GlyphClass: 2
Flags: W
HStem: 0 21G<50 150 450 550> 400 80<228.671 371.847>
VStem: 50 100<0 313.49 434 725> 450 100<0 311.21>
AnchorPoint: "Bottom" 300 0 basechar 0
LayerCount: 2
Fore
SplineSet
150 0 m 1
 50 0 l 1
 50 725 l 1
 150 725 l 1
 150 434 l 1
 204 472 267 480 304 480 c 0
 409 480 550 417 550 234 c 2
 550 0 l 1
 450 0 l 1
 450 235 l 1
 449 307 391 400 303 400 c 4
 193 400 150 287 150 235 c 0
 150 143 150 0 150 0 c 1
EndSplineSet
EndChar

StartChar: ZLM_TONE_UPDOWN
Encoding: 63 926527 47
Width: 0
VWidth: 0
GlyphClass: 2
Flags: W
HStem: -228 172
AnchorPoint: "Bottom" 0 0 mark 0
LayerCount: 2
Fore
SplineSet
-180 -188 m 1
 -27 -56 l 1
 30 -56 l 1
 176 -188 l 1
 176 -188 133 -230 129 -228 c 0
 125 -226 -1 -111 -1 -111 c 1
 -142 -226 l 1
 -180 -188 l 1
EndSplineSet
EndChar

StartChar: ZLM_K
Encoding: 64 926528 48
Width: 600
VWidth: 0
GlyphClass: 2
Flags: W
HStem: 0 21G<50 166.901 450 550>
VStem: 50 101<133 725> 450 100<0 355>
AnchorPoint: "Bottom" 300 0 basechar 0
LayerCount: 2
Fore
SplineSet
50 725 m 21
 151 725 l 5
 151 133 l 5
 450 470 l 5
 550 470 l 5
 550 0 l 5
 450 0 l 5
 450 355 l 5
 150 0 l 5
 50 0 l 21
 50 725 l 21
EndSplineSet
EndChar

StartChar: ZLM_TONE_DOWNUP
Encoding: 79 926543 59
Width: 0
VWidth: 0
GlyphClass: 2
Flags: W
HStem: -241 191
AnchorPoint: "Bottom" 0 0 mark 0
LayerCount: 2
Fore
SplineSet
-174 -92 m 25
 -135 -56 l 1
 0 -167 l 1
 129 -50 l 1
 170 -86 l 25
 1 -241 l 1
 -174 -92 l 25
EndSplineSet
EndChar

StartChar: ZLM_F
Encoding: 80 926544 60
Width: 600
VWidth: 0
GlyphClass: 2
Flags: W
HStem: 0 80<52 161.733 253.412 552>
VStem: 272 100<173.605 470>
AnchorPoint: "Bottom" 320 0 basechar 0
LayerCount: 2
Fore
SplineSet
253.412109375 80 m 1
 552 80 l 1
 552 0 l 1
 52 0 l 1
 52 80 l 1
 100.762695312 80 272 105.296875 272 237 c 2
 272 470 l 1
 305.333007812 470 338.666992188 470 372 470 c 1
 372 256 l 2
 372 177.6640625 319.337890625 114.163085938 253.412109375 80 c 1
EndSplineSet
EndChar

StartChar: ZLM_BAHEBU_1
Encoding: 95 926559 71
Width: 0
VWidth: 0
GlyphClass: 2
Flags: W
HStem: -251 120<-46.2546 46.2546>
VStem: -60 120<-237.255 -144.745>
AnchorPoint: "Bottom" 0 0 mark 0
LayerCount: 2
Fore
SplineSet
-60 -191 m 0
 -60 -158 -33 -131 0 -131 c 0
 33 -131 60 -158 60 -191 c 0
 60 -224 33 -251 0 -251 c 0
 -33 -251 -60 -224 -60 -191 c 0
EndSplineSet
EndChar

StartChar: ZLM_L
Encoding: 96 926560 72
Width: 600
VWidth: 0
GlyphClass: 2
Flags: W
HStem: -10 80<229.445 375.827> 400 80<229.445 380.338>
VStem: 43 110<148.617 321.383>
AnchorPoint: "Bottom" 300 0 basechar 0
LayerCount: 2
Fore
SplineSet
535.762358337 332.147630281 m 1
 429.86967936 318.517879522 l 0
 403.605130253 379.281996659 351.048828125 400 300 400 c 4
 228 400 153 339 153 235 c 0
 153 131 228 70 300 70 c 0
 356.287109375 70 414.407842121 99.5038587923 437.0948728 170.800139505 c 1
 543.763671875 157.598632812 l 1
 509.099609375 59.443359375 410.658180202 -10 300 -10 c 0
 162 -10 43 98 43 235 c 0
 43 372 162 480 300 480 c 0
 403.080994236 480 502 431 535.762358337 332.147630281 c 1
EndSplineSet
EndChar

StartChar: ZLM_BAHEBU_2
Encoding: 111 926575 83
Width: 0
VWidth: 0
GlyphClass: 2
Flags: W
HStem: -251 120<-131.255 -38.7454 38.7454 131.255>
VStem: -145 120<-237.255 -144.745> 25 120<-237.255 -144.745>
AnchorPoint: "Bottom" 0 0 mark 0
LayerCount: 2
Fore
SplineSet
25 -191 m 0
 25 -158 52 -131 85 -131 c 0
 118 -131 145 -158 145 -191 c 0
 145 -224 118 -251 85 -251 c 0
 52 -251 25 -224 25 -191 c 0
-145 -191 m 0
 -145 -158 -118 -131 -85 -131 c 0
 -52 -131 -25 -158 -25 -191 c 0
 -25 -224 -52 -251 -85 -251 c 0
 -118 -251 -145 -224 -145 -191 c 0
EndSplineSet
LCarets2: 1 0
Ligature2: "zlmBahebu subtable" ZLM_BAHEBU_1 ZLM_BAHEBU_1
EndChar

StartChar: ZLM_S
Encoding: 112 926576 84
Width: 600
VWidth: 0
GlyphClass: 2
Flags: W
HStem: -9 80<230.445 373.547> 401 80<186.933 278.709>
VStem: 44 110<149.617 359.406> 290.87 105.893<323.147 389.515> 451 100<157.313 726>
AnchorPoint: "Bottom" 300 0 basechar 0
LayerCount: 2
Fore
SplineSet
451 726 m 1
 551 726 l 1
 551 292 l 2
 551 47.884765625 420.094726562 -9 301 -9 c 0
 163 -9 44 99 44 236 c 0
 44 373 113 481 221 481 c 0
 344.081054688 481 396 422 396.762695312 323.147460938 c 1
 290.870117188 309.517578125 l 1
 290.60546875 370.282226562 282.048828125 401 231 401 c 0
 179 401 154 340 154 236 c 0
 154 132 229 71 301 71 c 4
 378.626953125 71 450.583007812 140.70703125 451 246 c 2
 451 726 l 1
EndSplineSet
EndChar

StartChar: ZLM_BAHEBU_3
Encoding: 127 926591 95
Width: 0
VWidth: 0
GlyphClass: 2
Flags: W
HStem: -301 120<-136.255 -43.7454 43.7454 136.255> -151 120<-46.2546 46.2546>
VStem: -150 120<-287.255 -194.745> -60 120<-137.255 -44.7454> 30 120<-287.255 -194.745>
AnchorPoint: "Bottom" 0 0 mark 0
LayerCount: 2
Fore
SplineSet
30 -241 m 0xc8
 30 -208 57 -181 90 -181 c 0
 123 -181 150 -208 150 -241 c 0
 150 -274 123 -301 90 -301 c 0
 57 -301 30 -274 30 -241 c 0xc8
-150 -241 m 0xe0
 -150 -208 -123 -181 -90 -181 c 0
 -57 -181 -30 -208 -30 -241 c 0
 -30 -274 -57 -301 -90 -301 c 0
 -123 -301 -150 -274 -150 -241 c 0xe0
-60 -91 m 0xd0
 -60 -58 -33 -31 0 -31 c 0
 33 -31 60 -58 60 -91 c 0
 60 -124 33 -151 0 -151 c 0
 -33 -151 -60 -124 -60 -91 c 0xd0
EndSplineSet
LCarets2: 2 0 0
Ligature2: "zlmBahebu subtable" ZLM_BAHEBU_1 ZLM_BAHEBU_1 ZLM_BAHEBU_1
EndChar

StartChar: ZLM_C
Encoding: 128 926592 96
Width: 600
VWidth: 0
GlyphClass: 2
Flags: W
HStem: 0 21G<50 150 450 550> 400 80<227.223 371.329>
VStem: 50 100<0 315.47 437.527 470> 450 100<0 313.49 434 725>
AnchorPoint: "Bottom" 300 0 basechar 0
LayerCount: 2
Fore
SplineSet
450 0 m 1
 450 0 450 143 450 235 c 0
 450 287 407 400 297 400 c 4
 209 400 151 307 150 235 c 2
 150 71 l 1
 150 0 l 1
 50 0 l 1
 50 71 l 1
 50 234 l 1
 50 470 l 1
 150 470 l 1
 150 437.526762753 l 1
 195.392826287 467.517874481 249.26273472 480 296 480 c 0
 333 480 396 472 450 434 c 1
 450 725 l 1
 550 725 l 1
 550 0 l 1
 450 0 l 1
EndSplineSet
EndChar

StartChar: ZLM_STRETCH
Encoding: 143 926607 107
Width: 0
VWidth: 0
GlyphClass: 2
Flags: W
HStem: -189 66<-221 221>
AnchorPoint: "Bottom" 0 0 mark 0
LayerCount: 2
Fore
SplineSet
-221 -123 m 1
 221 -123 l 1
 221 -189 l 1
 -221 -189 l 1
 -221 -123 l 1
EndSplineSet
EndChar

StartChar: ZLM_M
Encoding: 144 926608 108
Width: 600
VWidth: 0
GlyphClass: 2
Flags: W
HStem: 0 80<50 303.953 441.412 550> 400 80<217.241 375.275>
VStem: 439.997 110.002<186.082 338.106>
AnchorPoint: "Bottom" 300 0 basechar 0
LayerCount: 2
Fore
SplineSet
549.999023438 255.5390625 m 0
 549.999023438 177.452148438 491 89 441.412109375 80 c 1
 550 80 l 1
 550 0 l 1
 50 0 l 1
 50 80 l 1
 210 80 l 2
 258.6484375 80 439.244140625 125.131835938 439.997070312 256.07421875 c 0
 439.483398438 359.557617188 364.751953125 400 293 400 c 0
 237 400 179 370 156 299 c 1
 49 312 l 1
 84 410 182 480 293 480 c 0
 430.818950592 480 549.6875 392.283203125 549.999023438 255.5390625 c 0
EndSplineSet
EndChar

StartChar: ZLM_DASH_INIT
Encoding: 159 926623 119
Width: 454
VWidth: 0
GlyphClass: 2
Flags: W
HStem: 202 63<50 481>
LayerCount: 2
Fore
SplineSet
50 265 m 1
 481 265 l 1
 481 202 l 1
 50 202 l 1
 50 265 l 1
EndSplineSet
EndChar

StartChar: ZLM_X
Encoding: 160 926624 120
Width: 600
VWidth: 0
GlyphClass: 2
Flags: W
HStem: -10 80<229.445 370.555> 400 80<229.445 370.555>
VStem: 43 110<148.617 321.383> 447 110<148.617 321.383>
AnchorPoint: "Bottom" 300 0 basechar 0
LayerCount: 2
Fore
SplineSet
153 235 m 0
 153 131 228 70 300 70 c 4
 372 70 447 131 447 235 c 0
 447 339 372 400 300 400 c 0
 228 400 153 339 153 235 c 0
43 235 m 0
 43 372 162 480 300 480 c 0
 438 480 557 372 557 235 c 0
 557 98 438 -10 300 -10 c 0
 162 -10 43 98 43 235 c 0
EndSplineSet
EndChar

StartChar: ZLM_DASH_MEDI
Encoding: 175 926639 131
Width: 454
VWidth: 0
GlyphClass: 2
Flags: W
HStem: 202 63<-30 481>
LayerCount: 2
Fore
SplineSet
-30 265 m 5
 481 265 l 1
 481 202 l 1
 -30 202 l 5
 -30 265 l 5
EndSplineSet
Substitution2: "Single Substitution lookup 261 subtable" ZLM_DASH_ISO
Substitution2: "Single Substitution lookup 259 subtable" ZLM_DASH_FINAL
Substitution2: "Single Substitution lookup 258 subtable" ZLM_DASH_FINAL
Substitution2: "Single Substitution lookup 256 subtable" ZLM_DASH_INIT
Substitution2: "Single Substitution lookup 255 subtable" ZLM_DASH_INIT
EndChar

StartChar: ZLM_B
Encoding: 176 926640 132
Width: 600
VWidth: 0
GlyphClass: 2
Flags: W
HStem: 0 21G<50 167.094>
VStem: 450 100<-255 351>
AnchorPoint: "Bottom" 270 0 basechar 0
LayerCount: 2
Fore
SplineSet
50 0 m 1
 450 470 l 1
 549 470 l 17
 550 -255 l 17
 450 -255 l 1
 450 351 l 1
 150 0 l 1
 50 0 l 1
EndSplineSet
Validated: 1
EndChar

StartChar: ZLM_DASH_FINAL
Encoding: 191 926655 143
Width: 454
VWidth: 0
GlyphClass: 2
Flags: W
HStem: 202 63<-40 401>
LayerCount: 2
Fore
SplineSet
-40 265 m 1
 401 265 l 1
 401 202 l 1
 -40 202 l 1
 -40 265 l 1
EndSplineSet
EndChar

StartChar: ZLM_D
Encoding: 192 926656 144
Width: 600
VWidth: 0
GlyphClass: 2
Flags: W
HStem: -10 80<228.153 371.329>
VStem: 50 100<158.79 470> 450 100<-255 36 156.51 470>
AnchorPoint: "Bottom" 270 0 basechar 0
LayerCount: 2
Fore
SplineSet
450 470 m 1
 550 470 l 1
 550 -255 l 1
 450 -255 l 1
 450 36 l 1
 396 -2 333 -10 296 -10 c 0
 191 -10 50 53 50 236 c 2
 50 470 l 1
 150 470 l 1
 150 235 l 1
 151 163 209 70 297 70 c 4
 407 70 450 183 450 235 c 0
 450 327 450 470 450 470 c 1
EndSplineSet
EndChar

StartChar: ZLM_DASH_ISO
Encoding: 207 926671 155
Width: 454
VWidth: 0
GlyphClass: 2
Flags: W
HStem: 202 63<50 401>
LayerCount: 2
Fore
SplineSet
50 265 m 5
 401 265 l 5
 401 202 l 5
 50 202 l 5
 50 265 l 5
EndSplineSet
EndChar

StartChar: ZLM_G
Encoding: 208 926672 156
Width: 600
VWidth: 0
GlyphClass: 2
Flags: W
HStem: 0 21G<50 167.745>
VStem: 50 100<115 470> 449 101<-255 337>
AnchorPoint: "Bottom" 285 0 basechar 0
LayerCount: 2
Fore
SplineSet
550 -255 m 17
 449 -255 l 1
 449 337 l 1
 150 0 l 1
 50 0 l 1
 50 470 l 1
 150 470 l 1
 150 115 l 1
 450 470 l 1
 550 470 l 17
 550 -255 l 17
EndSplineSet
EndChar

StartChar: ZLM_V
Encoding: 224 926688 167
Width: 600
VWidth: 0
GlyphClass: 2
Flags: W
HStem: 0 21G<230 330> 390 80<50 348.588 440.267 550>
VStem: 230 100<0 296.395>
AnchorPoint: "Bottom" 270 0 basechar 0
LayerCount: 2
Fore
SplineSet
348.587890625 390 m 5
 50 390 l 5
 50 470 l 1
 550 470 l 1
 550 390 l 5
 501.237304688 390 330 364.703125 330 233 c 2
 330 0 l 1
 296.666992188 0 263.333007812 0 230 0 c 1
 230 214 l 2
 230 292.33582861 282.662109375 355.836914062 348.587890625 390 c 5
EndSplineSet
EndChar

StartChar: ZLM_R
Encoding: 240 926704 178
Width: 600
VWidth: 0
GlyphClass: 2
Flags: W
HStem: -10 80<212.594 363.555> 400 80<217.241 363.555>
VStem: 440 110<148.617 321.383>
AnchorPoint: "Bottom" 300 0 basechar 0
LayerCount: 2
Fore
SplineSet
57 138 m 1
 163 151 l 0
 189 90 242 70 293 70 c 4
 365 70 440 131 440 235 c 0
 440 339 365 400 293 400 c 0
 237 400 179 370 156 299 c 1
 49 312 l 1
 84 410 182 480 293 480 c 0
 431 480 550 372 550 235 c 0
 550 98 431 -10 293 -10 c 0
 190 -10 91 39 57 138 c 1
EndSplineSet
EndChar

StartChar: ZLM_Z
Encoding: 256 926720 189
Width: 600
VWidth: 0
GlyphClass: 2
Flags: W
HStem: -10 80<322.291 414.067> 400 80<227.453 370.555>
VStem: 50 100<-255 313.687> 204.237 105.893<81.4847 147.853> 447 110<111.594 321.383>
AnchorPoint: "Bottom" 350 0 basechar 0
LayerCount: 2
Fore
SplineSet
150 -255 m 1
 50 -255 l 1
 50 179 l 2
 50 423.115234375 180.905273438 480 300 480 c 0
 438 480 557 372 557 235 c 0
 557 98 488 -10 380 -10 c 0
 256.918945312 -10 205 49 204.237304688 147.852539062 c 1
 310.129882812 161.482421875 l 1
 310.39453125 100.717773438 318.951171875 70 370 70 c 4
 422 70 447 131 447 235 c 0
 447 339 372 400 300 400 c 0
 222.373046875 400 150.416992188 330.29296875 150 225 c 2
 150 -255 l 1
EndSplineSet
EndChar

StartChar: ZLM_J
Encoding: 272 926736 200
Width: 600
VWidth: 0
GlyphClass: 2
Flags: W
HStem: -10 80<228.671 372.777> 0 21G<450 550>
VStem: 50 100<-255 36 156.51 470> 450 100<0 32.4736 154.53 470>
AnchorPoint: "Bottom" 325 -0 basechar 0
LayerCount: 2
Fore
SplineSet
150 470 m 1xb0
 150 470 150 327 150 235 c 0
 150 183 193 70 303 70 c 4xb0
 391 70 449 163 450 235 c 2
 450 399 l 1
 450 470 l 1
 550 470 l 1
 550 399 l 1
 550 236 l 1
 550 0 l 1
 450 0 l 1x70
 450 32.4736328125 l 1
 404.607421875 2.482421875 350.737304688 -10 304 -10 c 0
 267 -10 204 -2 150 36 c 1
 150 -255 l 1
 50 -255 l 1
 50 470 l 1
 150 470 l 1xb0
EndSplineSet
EndChar

StartChar: ZLM_N
Encoding: 288 926752 211
Width: 600
VWidth: 0
Flags: W
HStem: -10 80<223.725 381.759> 390 80<49 177.588 308.719 549>
VStem: 49.001 110.002<131.894 279.803>
AnchorPoint: "Bottom" 300 0 basechar 0
LayerCount: 2
Fore
SplineSet
49.0009765625 214.4609375 m 0
 49.0009765625 292.547851562 128 381 177.587890625 390 c 1
 49 390 l 1
 49 470 l 1
 549 470 l 1
 549 390 l 1
 409 390 l 2
 360.3515625 390 159.755859375 344.868164062 159.002929688 213.92578125 c 0
 159.516601562 110.442382812 234.248046875 70 306 70 c 4
 362 70 420 100 443 171 c 1
 550 158 l 1
 515 60 417 -10 306 -10 c 0
 168.180664062 -10 49.3125 77.716796875 49.0009765625 214.4609375 c 0
EndSplineSet
EndChar

StartChar: ZLM_SEMIVOWEL_Q
Encoding: 304 926768 222
Width: 600
VWidth: 0
Flags: W
HStem: 0 21G<51 158.511 442.489 550>
AnchorPoint: "Bottom" 300 0 basechar 0
LayerCount: 2
Fore
SplineSet
300.5 353.675 m 5
 150 0 l 5
 51 0 l 5
 250 470 l 6
 351 470 l 5
 550 0 l 5
 451 0 l 5
 300.5 353.675 l 5
EndSplineSet
EndChar

StartChar: ZLM_SEMIVOWEL_W
Encoding: 320 926784 233
Width: 600
VWidth: 0
Flags: W
HStem: 0 21G<241.532 359.468>
AnchorPoint: "Bottom" 300 0 basechar 0
LayerCount: 2
Fore
SplineSet
300.5 116.325195312 m 5
 451 470 l 5
 550 470 l 5
 351 0 l 5
 250 0 l 6
 51 470 l 5
 150 470 l 5
 300.5 116.325195312 l 5
EndSplineSet
EndChar

StartChar: ZLM_DIACRITIC_A
Encoding: 336 926800 244
Width: 300
VWidth: 0
GlyphClass: 2
Flags: W
HStem: 106 244<122 177>
VStem: 105 90<181.778 350>
LayerCount: 2
Fore
SplineSet
122 106 m 5
 105 230 l 5
 105 350 l 5
 195 350 l 5
 195 230 l 5
 177 106 l 5
 122 106 l 5
EndSplineSet
Validated: 1
Substitution2: "Single Substitution lookup 263 subtable" ZLM_DOT_A
EndChar

StartChar: ZLM_DIACRITIC_E
Encoding: 352 926816 255
Width: 300
VWidth: 0
GlyphClass: 2
Flags: W
HStem: 200 72<30 270>
VStem: 30 240<200 272>
LayerCount: 2
Fore
SplineSet
30 200 m 1
 30 272 l 1
 270 272 l 1
 270 200 l 1
 30 200 l 1
EndSplineSet
Validated: 1
Substitution2: "Single Substitution lookup 264 subtable" ZLM_DOT_E
EndChar

StartChar: ZLM_DIACRITIC_I
Encoding: 368 926832 266
Width: 300
VWidth: 0
GlyphClass: 2
Flags: W
HStem: 175 120<103.745 196.255>
VStem: 90 120<188.745 281.255>
LayerCount: 2
Fore
SplineSet
90 235 m 4
 90 268 117 295 150 295 c 4
 183 295 210 268 210 235 c 4
 210 202 183 175 150 175 c 4
 117 175 90 202 90 235 c 4
EndSplineSet
Validated: 1
Substitution2: "Single Substitution lookup 265 subtable" ZLM_DOT_I
EndChar

StartChar: ZLM_DIACRITIC_O
Encoding: 384 926848 277
Width: 300
VWidth: 0
GlyphClass: 2
Flags: W
HStem: 185 61<146.851 230.539> 225 57<68.5447 148.178>
VStem: 4 58<184 213.67> 238 56<253.237 283>
LayerCount: 2
Fore
SplineSet
4 184 m 5x70
 4 214 12 238 29 256 c 4
 46 274 67 282 93 282 c 4x70
 111 282 134 275 165 259 c 4
 182 251 196 246 206 246 c 4
 216 246 222 248 227 253 c 4
 232 258 236 267 238 283 c 5
 294 283 l 5
 293 249 285 226 269 209 c 4
 253 192 233 185 209 185 c 4xb0
 191 185 167 193 137 209 c 4
 118 219 103 225 95 225 c 4
 85 225 77 221 71 214 c 4
 65 207 62 197 62 184 c 5
 4 184 l 5x70
EndSplineSet
Validated: 1
Substitution2: "Single Substitution lookup 266 subtable" ZLM_DOT_O
EndChar

StartChar: ZLM_DIACRITIC_U
Encoding: 400 926864 288
Width: 300
VWidth: 0
GlyphClass: 2
Flags: W
HStem: 164.1 61.1006<92.6182 213.502>
VStem: 237.7 62.3994<245.862 291.5>
LayerCount: 2
Fore
SplineSet
237.700195312 291.5 m 5
 300.099609375 291.5 l 5
 294.900390625 249.900390625 278 218.700195312 253.299804688 196.599609375 c 4
 228.599609375 174.5 194.799804688 164.099609375 153.200195312 164.099609375 c 4
 111.599609375 164.099609375 76.5 174.5 51.7998046875 196.599609375 c 4
 27.099609375 218.700195312 10.2001953125 249.900390625 5 291.5 c 5
 67.400390625 291.5 l 5
 72.599609375 269.400390625 80.400390625 252.5 94.7001953125 242.099609375 c 4
 109 231.700195312 125.900390625 225.200195312 149.299804688 225.200195312 c 4
 176.599609375 225.200195312 196.099609375 230.400390625 210.400390625 240.799804688 c 4
 224.700195312 251.200195312 232.5 268.099609375 237.700195312 291.5 c 5
EndSplineSet
Substitution2: "Single Substitution lookup 267 subtable" ZLM_DOT_U
EndChar

StartChar: ZLM_DIACRITIC_Y
Encoding: 416 926880 299
Width: 300
VWidth: 0
GlyphClass: 2
Flags: W
HStem: 136.05 45.9502<114.403 197.263> 288 44.9502<115.132 197.135>
VStem: 58.2002 45.7998<192.341 277.505> 208 43.7998<193.173 276.748>
LayerCount: 2
Fore
SplineSet
155 136.049804688 m 0
 99.9868692412 136.049804688 58.2001953125 180.508706062 58.2001953125 236.150390625 c 0
 58.2001953125 288.491961569 102.660363084 332.950195312 155 332.950195312 c 0
 207.921200601 332.950195312 251.799804688 287.162373192 251.799804688 233.950195312 c 0
 251.799804688 179.756968159 208.512739963 136.049804688 155 136.049804688 c 0
156 288 m 0
 128.260421559 288 104 263.738661908 104 236 c 0
 104 206.616900115 127.206880423 182 156 182 c 256
 184.268850728 182 208 206.440055165 208 235 c 256
 208 263.56340823 184.270465119 288 156 288 c 0
EndSplineSet
Validated: 1
Substitution2: "Single Substitution lookup 268 subtable" ZLM_DOT_Y
EndChar

StartChar: ZLM_DIACRITIC_AI
Encoding: 432 926896 310
Width: 300
VWidth: 0
GlyphClass: 2
Flags: W
HStem: 330 37<183.194 190.162>
VStem: 97.7979 73.4521<254.918 322.63> 144.393 79.54<153.326 225.324>
LayerCount: 2
Fore
SplineSet
186 367 m 1xc0
 208 330 l 1
 195 328 184 314 178 307 c 0
 173.5 301.75 171.25 295.9375 171.25 289.140625 c 0xc0
 171.25 273.497070312 182.084960938 265.915039062 195 253 c 0
 212.237304688 237.330078125 223.932617188 220.946289062 223.932617188 194.6484375 c 0
 223.932617188 178.641601562 218.012695312 166.587890625 208 153 c 0
 194 134 167 106 134 99 c 1
 113 134 l 1
 128 139 138.775390625 154.549804688 142 161 c 0
 143.463867188 163.927734375 144.392578125 170.607421875 144.392578125 176.331054688 c 0xa0
 144.392578125 190.609375 141.083007812 205.833984375 127 221 c 0
 112.043945312 237.618164062 97.7978515625 246.930664062 97.7978515625 274.639648438 c 0
 97.7978515625 289.169921875 103.313476562 302.084960938 113 315 c 0
 128 335 156 362 186 367 c 1xc0
EndSplineSet
Substitution2: "Single Substitution lookup 269 subtable" ZLM_DOT_AI
Ligature2: "zlmVV subtable" ZLM_DIACRITIC_A ZLM_DIACRITIC_I
EndChar

StartChar: ZLM_DIACRITIC_EI
Encoding: 448 926912 321
Width: 300
VWidth: 0
GlyphClass: 2
Flags: W
HStem: 251 61<88.477 210.718>
VStem: 5 61<185 227.855> 234 60<185 227.855>
LayerCount: 2
Fore
SplineSet
294 185 m 5
 234 185 l 5
 225.333007812 229 196.333007812 251 147 251 c 4
 101.666992188 251 74.6669921875 229 66 185 c 5
 5 185 l 5
 15 269 63.3330078125 311.333007812 150 312 c 4
 236 311.333007812 284 269 294 185 c 5
EndSplineSet
Substitution2: "Single Substitution lookup 270 subtable" ZLM_DOT_EI
Ligature2: "zlmVV subtable" ZLM_DIACRITIC_E ZLM_DIACRITIC_I
EndChar

StartChar: ZLM_DIACRITIC_OI
Encoding: 464 926928 332
Width: 300
VWidth: 0
GlyphClass: 2
Flags: W
HStem: 128 61<165.58 230.539> 177 60.6954<101.798 144.986>
VStem: 238 56<196.237 226>
LayerCount: 2
Fore
SplineSet
133 370 m 1x60
 203 370 l 1
 126.543945312 237.615234375 l 1
 126.951119268 237.66915916 127.363401175 237.695413783 127.780612854 237.695413783 c 0x60
 138.077220338 237.695413783 151.376461271 221.704209001 165 211 c 0
 179 200 196 189 206 189 c 0
 216 189 222 191 227 196 c 0
 232 201 236 210 238 226 c 1
 294 226 l 1
 293 192 285 169 269 152 c 0
 253 135 233 128 209 128 c 0xa0
 191 128 165.048678558 140.801206855 137 161 c 0
 131.147041472 165.214911528 119 177 109 177 c 0
 94.595703125 177 79.4384765625 152.741210938 73 136 c 1
 4 136 l 2
 3 136 l 1
 133 370 l 1x60
EndSplineSet
Validated: 1
Substitution2: "Single Substitution lookup 271 subtable" ZLM_DOT_OI
Ligature2: "zlmVV subtable" ZLM_DIACRITIC_O ZLM_DIACRITIC_I
EndChar

StartChar: ZLM_DIACRITIC_AU
Encoding: 480 926944 343
Width: 227
VWidth: 0
GlyphClass: 2
Flags: W
HStem: 136.441 0.559012<71.7666 75.6818> 261.968 92.0319<51.3944 99.6918>
VStem: 113.611 70.4574<178.414 264.87>
LayerCount: 2
Fore
SplineSet
81.8370988042 261.968148444 m 0
 59.1022288797 261.968148444 45.4005593549 282.881434209 45.4005593549 307.441844565 c 0
 45.4005593549 327.765719918 55.5835482845 348.820752666 80 354 c 0
 88.2919598878 355.785960591 96.3398135077 356.676864867 104.043911906 356.676864867 c 0
 150.234432226 356.676864867 184.06800022 324.651571992 184.06800022 261.495845227 c 0
 184.06800022 252.612327576 183.398590114 243.112882363 182 233 c 0
 171.992532319 156.579337712 117.2902869 136.440988132 75.8742045935 136.440988132 c 0
 71.766592004 136.440988132 67.789668856 136.639079157 64 137 c 1
 64 137 113.610586011 174.361058601 113.610586011 223.199391797 c 0
 113.610586011 236.765595463 109.782608696 251.217391304 100 266 c 1
 93.4165430264 263.21469128 87.3460080141 261.968148444 81.8370988042 261.968148444 c 0
EndSplineSet
Validated: 1
Substitution2: "Single Substitution lookup 272 subtable" ZLM_DOT_AU
Ligature2: "zlmVV subtable" ZLM_DIACRITIC_A ZLM_DIACRITIC_U
EndChar

StartChar: ZLM_CAS_ISO
Encoding: 496 926960 354
Width: 460
VWidth: 0
GlyphClass: 2
Flags: W
HStem: 0 21G<330 410> 246 91.8711<163.67 203.32>
VStem: 330 80<0 350>
AnchorPoint: "Bottom" 300 0 basechar 0
LayerCount: 2
Fore
SplineSet
94 413 m 0
 139.323242188 413 161.766741915 388.848677991 163.669921875 337.87109375 c 1
 248.669921875 337.87109375 330 470 330 470 c 1
 410 470 l 1
 410 0 l 1
 330 0 l 1
 330 350 l 1
 330 350 214 246 125 246 c 3
 64.8701171875 246 22.0476465836 267.10289089 22.0476465836 327.744384295 c 3
 22.0476465836 371.92213801 55.28515625 413 94 413 c 0
EndSplineSet
EndChar

StartChar: ZLM_FULL_A
Encoding: 497 926961 355
Width: 600
VWidth: 1024
GlyphClass: 2
Flags: W
HStem: 0 21G<50 150> 390 80<150 550>
VStem: 50 100<0 390>
LayerCount: 2
Fore
SplineSet
150 0 m 1
 50 0 l 1
 50 156.666666667 50 313.333333333 50 470 c 1
 216.666666667 470 383.333333333 470 550 470 c 1
 550 390 l 1
 150 390 l 1
 150 0 l 1
EndSplineSet
LCarets2: 1 0
Ligature2: "zlmSF subtable" ZLM_SLAKABU ZLM_FULL_A
EndChar

StartChar: ZLM_FULL_E
Encoding: 498 926962 356
Width: 600
VWidth: 1024
GlyphClass: 2
Flags: W
HStem: 0 21G<49 149> 195 80<149 550>
VStem: 49 100<0 195 275 470>
LayerCount: 2
Fore
SplineSet
149 0 m 1
 49 0 l 1
 49 470 l 1
 149 470 l 1
 149 275 l 1
 550 275 l 1
 550 195 l 1
 416.333333333 195 282.666666667 195 149 195 c 1
 149 0 l 1
EndSplineSet
Ligature2: "zlmSF subtable" ZLM_SLAKABU ZLM_FULL_E
EndChar

StartChar: ZLM_FULL_I
Encoding: 499 926963 357
Width: 600
VWidth: 1024
GlyphClass: 2
Flags: W
HStem: 0 21G<49 149 449 549> 390 80<149 449 549 550>
VStem: 49 100<0 390> 449 100<0 390>
LayerCount: 2
Fore
SplineSet
149 0 m 1
 49 0 l 1
 49 470 l 1
 550 470 l 1
 550 390 l 1
 549 390 l 1
 549 0 l 1
 449 0 l 1
 449 390 l 1
 349 390 249 390 149 390 c 1
 149 0 l 1
EndSplineSet
Ligature2: "zlmSF subtable" ZLM_SLAKABU ZLM_FULL_I
EndChar

StartChar: ZLM_FULL_O
Encoding: 500 926964 358
Width: 600
VWidth: 1024
GlyphClass: 2
Flags: W
HStem: 0 80<50 450>
VStem: 450 100<80 470>
LayerCount: 2
Fore
SplineSet
550 0 m 1
 50 0 l 1
 50 80 l 1
 450 80 l 1
 450 470 l 1
 550 470 l 1
 550 313.333333333 550 156.666666667 550 0 c 1
EndSplineSet
Ligature2: "zlmSF subtable" ZLM_SLAKABU ZLM_FULL_O
EndChar

StartChar: ZLM_FULL_U
Encoding: 501 926965 359
Width: 600
VWidth: 1024
GlyphClass: 2
Flags: W
HStem: 0 80<150 450>
VStem: 50 100<80 470> 450 100<80 470>
LayerCount: 2
Fore
SplineSet
50 0 m 1
 50 470 l 1
 83 470 117 470 150 470 c 1
 150 80 l 1
 450 80 l 1
 450 470 l 1
 483 470 517 470 550 470 c 1
 550 313 550 157 550 0 c 1
 50 0 l 1
EndSplineSet
Ligature2: "zlmSF subtable" ZLM_SLAKABU ZLM_FULL_U
EndChar

StartChar: ZLM_FULL_Y
Encoding: 502 926966 360
Width: 599
VWidth: 1024
GlyphClass: 2
Flags: W
HStem: 0 21G<251 350> 195 80<50 250 350 550>
VStem: 251 99<0 195 275 470>
LayerCount: 2
Fore
SplineSet
350 0 m 1
 251 0 l 1
 251 195 l 1
 50 195 l 1
 50 275 l 1
 250 275 l 1
 250 470 l 1
 350 470 l 1
 350 275 l 1
 550 275 l 1
 550 195 l 1
 350 195 l 1
 350 0 l 1
EndSplineSet
Ligature2: "zlmSF subtable" ZLM_SLAKABU ZLM_FULL_Y
EndChar

StartChar: ZLM_FULL_AI
Encoding: 503 926967 361
Width: 600
VWidth: 1024
GlyphClass: 2
Flags: W
HStem: 0 80<150 550> 390 80<150 550>
VStem: 50 100<80 390>
LayerCount: 2
Fore
SplineSet
150 390 m 1
 150 80 l 1
 550 80 l 1
 550 0 l 1
 50 0 l 1
 50 470 l 1
 550 470 l 1
 550 390 l 1
 150 390 l 1
EndSplineSet
Ligature2: "zlmSFF subtable" ZLM_SLAKABU ZLM_FULL_AI
Ligature2: "zlmFF subtable" ZLM_FULL_A ZLM_FULL_I
EndChar

StartChar: ZLM_FULL_EI
Encoding: 504 926968 362
Width: 600
VWidth: 1024
GlyphClass: 2
Flags: W
HStem: -5 62<199.965 416.429> 414 62<186.695 402.035>
VStem: 42 108<99.7867 149 308.904 383.018> 452 108<87.7838 161.402 322 371.213>
LayerCount: 2
Fore
SplineSet
456 322 m 1
 443 388 381 414 294 414 c 0
 245 414 210 407 186 393 c 0
 162 379 150 362 150 343 c 0
 150 313 181 301 214 293 c 1
 215 293 l 1
 281 276 407 257 465 239 c 0
 515 224 560 194 560 135 c 0
 560 110 550 87 529 65 c 0
 486 19 402 -5 309 -5 c 0
 163 -5 48 44 42 149 c 1
 146 149 l 1
 159 83 221 57 308 57 c 0
 357 57 392 64 416 78 c 0
 440 92 452 108 452 127 c 0
 452 157 421 170 388 178 c 1
 387 177 l 1
 321 194 195 214 137 232 c 0
 87 247 42 276 42 335 c 0
 42 360 52 384 73 406 c 0
 116 452 200 476 293 476 c 0
 439 476 554 427 560 322 c 1
 456 322 l 1
EndSplineSet
Ligature2: "zlmSFF subtable" ZLM_SLAKABU ZLM_FULL_EI
Ligature2: "zlmFF subtable" ZLM_FULL_E ZLM_FULL_I
EndChar

StartChar: ZLM_FULL_OI
Encoding: 505 926969 363
Width: 600
VWidth: 1024
GlyphClass: 2
Flags: W
HStem: 0 80<50 450> 390 80<50 450>
VStem: 450 100<80 390>
LayerCount: 2
Fore
SplineSet
450 390 m 1
 316.666992188 390 183.333333333 390 50 390 c 1
 50 470 l 1
 550 470 l 1
 550 0 l 1
 383.333333333 -0 216.666666667 0 50 0 c 1
 50 80 l 1
 450 80 l 1
 450 390 l 1
EndSplineSet
Ligature2: "zlmSFF subtable" ZLM_SLAKABU ZLM_FULL_OI
Ligature2: "zlmFF subtable" ZLM_FULL_O ZLM_FULL_I
EndChar

StartChar: ZLM_FULL_AU
Encoding: 506 926970 364
Width: 600
VWidth: 1024
GlyphClass: 2
Flags: W
HStem: 0 21G<51 167.021 433.979 550>
LayerCount: 2
Fore
SplineSet
51 470 m 1
 151 470 l 1
 300.5 293.897243108 l 1
 450 470 l 1
 483.333333333 470 516.666666667 470 550 470 c 1
 350.250312891 235.294117647 l 1
 550 0 l 1
 451 0 l 1
 300.5 176.8375 l 1
 150 0 l 1
 51 0 l 1
 250.749687109 235.294117647 l 1
 51 470 l 1
EndSplineSet
Ligature2: "zlmSFF subtable" ZLM_SLAKABU ZLM_FULL_AU
Ligature2: "zlmFF subtable" ZLM_FULL_A ZLM_FULL_U
EndChar

